<?xml version="1.0" encoding="utf-8"?>

<!DOCTYPE svg PUBLIC "-//W3C//DTD SVG 1.1//EN" "http://www.w3.org/Graphics/SVG/1.1/DTD/svg11.dtd">
<!-- Uploaded to: SVG Repo, www.svgrepo.com, Generator: SVG Repo Mixer Tools -->
<svg height="800px" width="800px" version="1.1" id="_x32_" xmlns="http://www.w3.org/2000/svg" xmlns:xlink="http://www.w3.org/1999/xlink" 
	 viewBox="0 0 512 512"  xml:space="preserve">
<style type="text/css">
	.st0{fill:#000000;}
</style>
<g>
	<path class="st0" d="M210.674,488.473H512c0-66.47-35.066-115.758-85.798-138.104v-25.563
		c26.193-16.601,47.231-41.746,58.339-73.262l13.133-37.236c26.29-74.57-12.842-156.319-87.404-182.6
		c-71.786-25.306-150.212,10.035-179.406,79.256l-45.859,31.396c-1.734,1.493-2.654,3.743-2.452,6.026
		c0.194,2.283,1.476,4.332,3.453,5.518l23.483,16.787c-2.388,6.784-3.969,11.269-3.969,11.269l102.061,71.746l-73.328,35.098
		c16.44,22.369,39.535,40.213,67.705,50.143c2.194,0.775,4.388,1.484,6.598,2.146v4.59
		C251.395,365.18,210.674,416.848,210.674,488.473z"/>
	<path class="st0" d="M142.405,186.759L11.868,113.933c-0.589-0.315-1.234-0.476-1.887-0.476c-0.452,0-0.904,0.073-1.331,0.226
		c-1.057,0.388-1.896,1.21-2.292,2.259l-6.106,16.134c-0.71,1.871,0.129,3.961,1.92,4.856l132.997,65.074
		c0.532,0.259,1.121,0.396,1.702,0.396c0.452,0,0.912-0.081,1.34-0.242c0.992-0.372,1.79-1.114,2.21-2.09l3.654-8.381
		C144.865,189.865,144.147,187.727,142.405,186.759z"/>
	<path class="st0" d="M140.42,270.646c-0.42-0.968-1.218-1.735-2.21-2.09c-0.428-0.161-0.888-0.242-1.34-0.242
		c-0.581,0-1.17,0.138-1.702,0.396L2.172,333.793c-1.791,0.872-2.63,2.984-1.92,4.848l6.106,16.126
		c0.396,1.048,1.235,1.887,2.292,2.258c0.427,0.161,0.879,0.242,1.331,0.242c0.653,0,1.298-0.161,1.887-0.5l130.537-72.819
		c1.742-0.968,2.46-3.09,1.67-4.921L140.42,270.646z"/>
</g>
</svg>